:FULLY-SPECIFIED
:FORCE-ALL-JOINTS-BE-3DOF
:DEGREES
68
root 5.9262 16.7656 -28.0863 11.1314 2.85326 -3.91943
lfemur -35.9155 15.5944 -17.8
ltibia 53.0019 -0 0
lfoot -21.1272 -10.6503 0.0141692
ltoes 31.3217 -0 0
rfemur -17.1229 -0.215544 21.9533
rtibia 30.1998 -0 0
rfoot -26.5503 -18.2602 -0.000922112
rtoes -9.81098 0 0
lowerback -3.61627 2.54957 3.30822
upperback -1.43203 3.28882 -0.167555
thorax 0.74768 1.6396 -1.87866
lowerneck -10.0569 -2.44579 2.23295
upperneck -5.60229 -3.41816 2.02052
head -0.0875423 -1.72605 0.158106
lclavicle 2.34317e-014 -1.19271e-015 0
lhumerus -40.466 -11.7101 93.7881
lradius 43.9739 -0 0
lwrist 7.85873 0 0
lhand -12.9901 1.84642 0.00072074
lfingers 7.12502 -0 0
lthumb 13.1026 31.4139 0.000526744
rclavicle 2.34317e-014 -1.19271e-015 0
rhumerus -39.0476 2.29888 -91.8793
rradius 42.2634 -0 0
rwrist 8.21689 0 0
rhand -25.1006 -21.769 -6.66884e-006
rfingers 7.12502 -0 0
rthumb 1.41438 -51.744 -6.37459e-006
69
root 5.94306 16.7647 -28.0584 11.3323 2.91972 -4.02983
lfemur -36.4526 15.5243 -17.555
ltibia 52.7295 -0 0
lfoot -20.9958 -9.41667 0.0255125
ltoes 30.2883 -0 0
rfemur -17.1501 -0.093155 22.0238
rtibia 30.0572 -0 0
rfoot -26.4963 -18.4559 -0.00165982
rtoes -9.94342 0 0
lowerback -3.76565 2.61988 3.25696
upperback -1.5156 3.37964 -0.138464
thorax 0.744622 1.68446 -1.8102
lowerneck -10.0934 -2.50023 2.31987
upperneck -5.60428 -3.50028 1.97851
head -0.0851327 -1.76856 0.128518
lclavicle 2.34317e-014 -1.19271e-015 0
lhumerus -40.5899 -11.4345 93.623
lradius 44.0011 -0 0
lwrist 7.95523 0 0
lhand -13.176 1.802 0.00129734
lfingers 7.12502 -0 0
lthumb 12.9234 31.3803 0.000948145
rclavicle 2.34317e-014 -1.19271e-015 0
rhumerus -38.8694 2.42797 -91.7762
rradius 42.2874 -0 0
rwrist 8.2534 0 0
rhand -25.0898 -21.7761 -1.20039e-005
rfingers 7.12502 -0 0
rthumb 1.4248 -51.751 -1.14743e-005
70
root 5.95993 16.7639 -28.0304 11.5331 2.98657 -4.14001
lfemur -36.9899 15.4565 -17.3095
ltibia 52.4571 -0 0
lfoot -20.8642 -8.18302 0.0340247
ltoes 29.2548 -0 0
rfemur -17.1771 0.0292671 22.0942
rtibia 29.9146 -0 0
rfoot -26.4423 -18.6516 -0.0022131
rtoes -10.0759 0 0
lowerback -3.9151 2.69005 3.20551
upperback -1.59912 3.4705 -0.109502
thorax 0.741617 1.72933 -1.74173
lowerneck -10.13 -2.55461 2.40683
upperneck -5.60621 -3.5824 1.93649
head -0.082701 -1.81108 0.0989277
lclavicle 2.34317e-014 -1.19271e-015 0
lhumerus -40.7144 -11.1593 93.4574
lradius 44.0283 -0 0
lwrist 8.05174 0 0
lhand -13.362 1.75758 0.0017298
lfingers 7.12502 -0 0
lthumb 12.7441 31.3466 0.0012642
rclavicle 2.34317e-014 -1.19271e-015 0
rhumerus -38.691 2.55673 -91.6727
rradius 42.3115 -0 0
rwrist 8.28992 0 0
rhand -25.079 -21.7831 -1.60052e-005
rfingers 7.12502 -0 0
rthumb 1.43523 -51.758 -1.5299e-005
71
root 5.97679 16.763 -28.0024 11.7337 3.0538 -4.24995
lfemur -37.5273 15.3909 -17.0633
ltibia 52.1847 -0 0
lfoot -20.7325 -6.94935 0.0397016
ltoes 28.2214 -0 0
rfemur -17.204 0.151722 22.1646
rtibia 29.772 -0 0
rfoot -26.3883 -18.8473 -0.00258196
rtoes -10.2083 0 0
lowerback -4.06463 2.76009 3.15388
upperback -1.68261 3.5614 -0.0806711
thorax 0.738666 1.7742 -1.67327
lowerneck -10.1667 -2.60894 2.49383
upperneck -5.60809 -3.66452 1.89448
head -0.0802474 -1.85359 0.069335
lclavicle 2.34317e-014 -1.19271e-015 0
lhumerus -40.8397 -10.8844 93.2914
lradius 44.0555 -0 0
lwrist 8.14825 0 0
lhand -13.5479 1.71315 0.00201811
lfingers 7.12502 -0 0
lthumb 12.5649 31.3129 0.00147491
rclavicle 2.34317e-014 -1.19271e-015 0
rhumerus -38.5124 2.68518 -91.5687
rradius 42.3356 -0 0
rwrist 8.32643 0 0
rhand -25.0682 -21.7902 -1.86727e-005
rfingers 7.12502 -0 0
rthumb 1.44565 -51.765 -1.78489e-005
72
root 5.99366 16.7622 -27.9745 11.9343 3.12142 -4.35967
lfemur -38.0647 15.3275 -16.8166
ltibia 51.9123 -0 0
lfoot -20.6006 -5.71567 0.0425408
ltoes 27.188 -0 0
rfemur -17.2307 0.274211 22.2349
rtibia 29.6294 -0 0
rfoot -26.3343 -19.043 -0.00276639
rtoes -10.3407 0 0
lowerback -4.21422 2.83 3.10206
upperback -1.76606 3.65235 -0.0519696
thorax 0.735768 1.81907 -1.60481
lowerneck -10.2035 -2.66321 2.58086
upperneck -5.6099 -3.74664 1.85247
head -0.0777717 -1.8961 0.0397398
lclavicle 2.34317e-014 -1.19271e-015 0
lhumerus -40.9656 -10.6098 93.1249
lradius 44.0827 -0 0
lwrist 8.24476 0 0
lhand -13.7338 1.66873 0.00216226
lfingers 7.12502 -0 0
lthumb 12.3856 31.2792 0.00158026
rclavicle 2.34317e-014 -1.19271e-015 0
rhumerus -38.3335 2.81329 -91.4644
rradius 42.3596 -0 0
rwrist 8.36295 0 0
rhand -25.0574 -21.7973 -2.00065e-005
rfingers 7.12502 -0 0
rthumb 1.45607 -51.772 -1.91238e-005
73
root 6.01052 16.7613 -27.9465 12.1347 3.18942 -4.46915
lfemur -38.6024 15.2664 -16.5694
ltibia 51.6398 -0 0
lfoot -20.4688 -4.48199 0.0425408
ltoes 26.1546 -0 0
rfemur -17.2573 0.396732 22.3052
rtibia 29.4869 -0 0
rfoot -26.2804 -19.2388 -0.00276639
rtoes -10.4732 0 0
lowerback -4.36389 2.89977 3.05005
upperback -1.84948 3.74334 -0.0233981
thorax 0.732924 1.86395 -1.53635
lowerneck -10.2404 -2.71742 2.66793
upperneck -5.61165 -3.82876 1.81045
head -0.075274 -1.93861 0.0101419
lclavicle 2.34317e-014 -1.19271e-015 0
lhumerus -41.0923 -10.3356 92.958
lradius 44.11 -0 0
lwrist 8.34126 0 0
lhand -13.9197 1.6243 0.00216226
lfingers 7.12502 -0 0
lthumb 12.2064 31.2456 0.00158026
rclavicle 2.34317e-014 -1.19271e-015 0
rhumerus -38.1543 2.94108 -91.3597
rradius 42.3837 -0 0
rwrist 8.39946 0 0
rhand -25.0467 -21.8044 -2.00065e-005
rfingers 7.12502 -0 0
rthumb 1.46649 -51.7791 -1.91238e-005
